<svg xmlns="http://www.w3.org/2000/svg" viewBox="0 0 600 500" width="600" height="500" role="img" aria-label="Jobzlingo mascot — Working">

<defs>
  <linearGradient id="cover" x1="0" y1="0" x2="0" y2="1">
    <stop offset="0" stop-color="#56C285"/>
    <stop offset="0.55" stop-color="#2E9A5F"/>
    <stop offset="1" stop-color="#1F7A4D"/>
  </linearGradient>
  <linearGradient id="page" x1="0" y1="0" x2="0" y2="1">
    <stop offset="0" stop-color="#FFFFFF"/>
    <stop offset="1" stop-color="#EFE9D8"/>
  </linearGradient>
  <radialGradient id="floor" cx="0.5" cy="0.5" r="0.5">
    <stop offset="0" stop-color="#000" stop-opacity="0.32"/>
    <stop offset="1" stop-color="#000" stop-opacity="0"/>
  </radialGradient>
  <radialGradient id="hi" cx="0.3" cy="0.18" r="0.7">
    <stop offset="0" stop-color="#FFFFFF" stop-opacity="0.4"/>
    <stop offset="1" stop-color="#FFFFFF" stop-opacity="0"/>
  </radialGradient>
  <radialGradient id="blush" cx="0.5" cy="0.5" r="0.5">
    <stop offset="0" stop-color="#FF7A8A" stop-opacity="0.6"/>
    <stop offset="1" stop-color="#FF7A8A" stop-opacity="0"/>
  </radialGradient>
  <linearGradient id="limb" x1="0" y1="0" x2="0" y2="1">
    <stop offset="0" stop-color="#56C285"/>
    <stop offset="1" stop-color="#1F7A4D"/>
  </linearGradient>
  <linearGradient id="shoe" x1="0" y1="0" x2="0" y2="1">
    <stop offset="0" stop-color="#3A4F42"/>
    <stop offset="1" stop-color="#1A2E22"/>
  </linearGradient>
</defs>



<ellipse cx="300" cy="475" rx="170" ry="14" fill="url(#floor)"/>


        <g id="legs">
          <rect x="240" y="395" width="32" height="40" rx="16" fill="url(#limb)" stroke="#1A2E22" stroke-width="2"/>

        <path d="M 234.0 442 Q 234.0 424 242.0 424
                 L 266.0 424
                 Q 282.0 426 282.0 440
                 Q 282.0 451.0 270.0 451.0
                 L 242.0 451.0
                 Q 234.0 451.0 234.0 442 Z"
              fill="url(#shoe)" stroke="#1A2E22" stroke-width="2"/>
        <ellipse cx="256" cy="450.0" rx="18.0" ry="3" fill="#1A2E22"/>

          <rect x="328" y="395" width="32" height="40" rx="16" fill="url(#limb)" stroke="#1A2E22" stroke-width="2"/>

        <path d="M 322.0 442 Q 322.0 424 330.0 424
                 L 354.0 424
                 Q 362.0 426 362.0 440
                 Q 362.0 451.0 358.0 451.0
                 L 330.0 451.0
                 Q 322.0 451.0 322.0 442 Z"
              fill="url(#shoe)" stroke="#1A2E22" stroke-width="2"/>
        <ellipse cx="344" cy="450.0" rx="18.0" ry="3" fill="#1A2E22"/>

        </g>


<g id="body" transform="translate(300 270) rotate(0)">

  <path d="M -136 -118 Q -132 -126 -120 -126 L 122 -126 Q 134 -126 138 -118
           L 138 118 Q 134 126 122 126 L -120 126 Q -132 126 -136 118 Z"
        fill="#1F7A4D" opacity="0.5"/>

  <path d="M 118 -120 L 134 -110 L 134 116 L 118 122 Z"
        fill="url(#page)" stroke="#D4CDB8" stroke-width="1.2"/>
  <g stroke="#D4CDB8" stroke-width="1">
    <line x1="120" y1="-100" x2="132" y2="-92"/>
    <line x1="120" y1="-80" x2="132" y2="-72"/>
    <line x1="120" y1="-60" x2="132" y2="-52"/>
    <line x1="120" y1="-40" x2="132" y2="-32"/>
    <line x1="120" y1="-20" x2="132" y2="-12"/>
    <line x1="120" y1="0"   x2="132" y2="8"/>
    <line x1="120" y1="20"  x2="132" y2="28"/>
    <line x1="120" y1="40"  x2="132" y2="48"/>
    <line x1="120" y1="60"  x2="132" y2="68"/>
    <line x1="120" y1="80"  x2="132" y2="88"/>
  </g>

  <path d="M -118 -120 L -134 -110 L -134 116 L -118 122 Z"
        fill="url(#page)" stroke="#D4CDB8" stroke-width="1.2"/>
  <g stroke="#D4CDB8" stroke-width="1">
    <line x1="-132" y1="-92" x2="-120" y2="-100"/>
    <line x1="-132" y1="-72" x2="-120" y2="-80"/>
    <line x1="-132" y1="-52" x2="-120" y2="-60"/>
    <line x1="-132" y1="-32" x2="-120" y2="-40"/>
    <line x1="-132" y1="-12" x2="-120" y2="-20"/>
    <line x1="-132" y1="8"   x2="-120" y2="0"/>
    <line x1="-132" y1="28"  x2="-120" y2="20"/>
    <line x1="-132" y1="48"  x2="-120" y2="40"/>
    <line x1="-132" y1="68"  x2="-120" y2="60"/>
    <line x1="-132" y1="88"  x2="-120" y2="80"/>
  </g>

  <path d="M -118 -120 Q -118 -130 -108 -130 L 108 -130 Q 118 -130 118 -120
           L 118 120 Q 118 130 108 130 L -108 130 Q -118 130 -118 120 Z"
        fill="url(#cover)"/>
  <path d="M -118 -120 Q -118 -130 -108 -130 L 108 -130 Q 118 -130 118 -120
           L 118 120 Q 118 130 108 130 L -108 130 Q -118 130 -118 120 Z"
        fill="url(#hi)"/>

  <rect x="-104" y="-116" width="208" height="232" rx="6"
        fill="none" stroke="#F5A623" stroke-width="2" stroke-dasharray="3 5" opacity="0.85"/>

  <circle cx="-100" cy="-110" r="3" fill="#FFFFFF" opacity="0.7"/>
  <circle cx="100"  cy="-110" r="3" fill="#FFFFFF" opacity="0.7"/>
  <circle cx="-100" cy="110"  r="3" fill="#FFFFFF" opacity="0.7"/>
  <circle cx="100"  cy="110"  r="3" fill="#FFFFFF" opacity="0.7"/>

  <text x="-46" y="100" font-family="Verdana, Geneva, sans-serif" font-weight="900"
        font-size="24" fill="#FFFFFF" letter-spacing="0.5" text-anchor="start">Job</text>
  <text x="-3" y="102" font-family="Verdana, Geneva, sans-serif" font-weight="900"
        font-size="28" fill="#F5A623" letter-spacing="0" text-anchor="start">z</text>
  <text x="13" y="100" font-family="Verdana, Geneva, sans-serif" font-weight="900"
        font-size="24" fill="#FFFFFF" letter-spacing="0.5" text-anchor="start">lingo</text>
</g>

<path d="M 175 220 Q 190 360 235 410" stroke="url(#limb)" stroke-width="28" fill="none" stroke-linecap="round"/><circle cx="235" cy="410" r="22" fill="#FFD7A8" stroke="#1A2E22" stroke-width="2.5"/><path d="M 223 408 Q 235 402 247 408" stroke="#9B7142" stroke-width="1.5" fill="none"/>
<path d="M 425 220 Q 410 360 365 410" stroke="url(#limb)" stroke-width="28" fill="none" stroke-linecap="round"/><circle cx="365" cy="410" r="22" fill="#FFD7A8" stroke="#1A2E22" stroke-width="2.5"/><path d="M 353 408 Q 365 402 377 408" stroke="#9B7142" stroke-width="1.5" fill="none"/>
<g id='face'>
      <g transform="translate(254 205)">
        <rect x="-26" y="-10" width="52" height="22" rx="4" fill="#1A2E22"/>
        <rect x="-22" y="-7"  width="14" height="14" fill="#FFFFFF"/>
        <rect x="-4"  y="-7"  width="14" height="14" fill="#FFFFFF"/>
        <rect x="-19" y="-3"  width="6"  height="6"  fill="#1F7A4D"/>
        <rect x="-1"  y="-3"  width="6"  height="6"  fill="#1F7A4D"/>
      </g>
      <g transform="translate(346 205)">
        <rect x="-26" y="-10" width="52" height="22" rx="4" fill="#1A2E22"/>
        <rect x="-22" y="-7"  width="14" height="14" fill="#FFFFFF"/>
        <rect x="-4"  y="-7"  width="14" height="14" fill="#FFFFFF"/>
        <rect x="-19" y="-3"  width="6"  height="6"  fill="#1F7A4D"/>
        <rect x="-1"  y="-3"  width="6"  height="6"  fill="#1F7A4D"/>
      </g>
      <line x1="280" y1="205" x2="320" y2="205"
            stroke="#1A2E22" stroke-width="3" stroke-linecap="round"/>

        <circle cx="254" cy="214" r="34" fill="none"
                stroke="#1A2E22" stroke-width="3" opacity="0.5"/>
        <circle cx="346" cy="214" r="34" fill="none"
                stroke="#1A2E22" stroke-width="3" opacity="0.5"/>
        <line x1="288" y1="214" x2="312" y2="214"
              stroke="#1A2E22" stroke-width="3" opacity="0.5"/>

        <path d="M 290 245 L 310 245"
              stroke="#1A2E22" stroke-width="4" stroke-linecap="round"/>
        </g>

<g transform="translate(300 425)">
  <rect x="-90" y="-2" width="180" height="14" rx="3" fill="#1A2E22"/>
  <rect x="-82" y="-54" width="164" height="56" rx="6" fill="#1A2E22"/>
  <rect x="-76" y="-50" width="152" height="48" rx="3" fill="#0F2A1C"/>
  <rect x="-68" y="-44" width="48" height="3" fill="#56C285"/>
  <rect x="-16" y="-44" width="60" height="3" fill="#FFFFFF" opacity="0.5"/>
  <rect x="-68" y="-36" width="84" height="3" fill="#F5A623"/>
  <rect x="-68" y="-28" width="36" height="3" fill="#56C285"/>
  <rect x="-26" y="-28" width="58" height="3" fill="#FFFFFF" opacity="0.5"/>
  <rect x="-68" y="-20" width="100" height="3" fill="#FFFFFF" opacity="0.7"/>
  <rect x="-68" y="-12" width="48" height="3" fill="#56C285"/>
</g>
<g transform="translate(115 380)">
  <rect x="-22" y="-14" width="40" height="44" rx="5" fill="#F5A623" stroke="#1A2E22" stroke-width="2.5"/>
  <path d="M 18 -4 Q 34 -2 34 12 Q 34 24 18 26" stroke="#1A2E22" stroke-width="3" fill="none"/>
  <ellipse cx="-2" cy="-12" rx="20" ry="4" fill="#3A2516"/>
  <path d="M -10 -22 Q -6 -32 -10 -42" stroke="#1A2E22" stroke-width="2.5" fill="none" opacity="0.55" stroke-linecap="round"/>
  <path d="M 0 -22 Q 4 -32 0 -42" stroke="#1A2E22" stroke-width="2.5" fill="none" opacity="0.55" stroke-linecap="round"/>
  <path d="M 10 -22 Q 14 -32 10 -42" stroke="#1A2E22" stroke-width="2.5" fill="none" opacity="0.55" stroke-linecap="round"/>
  <text x="-2" y="14" font-family="Verdana" font-size="10" font-weight="900" text-anchor="middle" fill="#FFFFFF">DEV</text>
</g>


</svg>
